#tb 0: 1/15
#media_type 0: video
#codec_id 0: rawvideo
#dimensions 0: 320x165
#sar 0: 0/1
#tb 1: 1/22050
#media_type 1: audio
#codec_id 1: pcm_s16le
#sample_rate 1: 22050
#channel_layout 1: 4
#channel_layout_name 1: mono
0,          0,          0,        1,   158400, 0x25aec781
1,          0,          0,     1470,     2940, 0x92cee2a6
0,          1,          1,        1,   158400, 0xda4dbf70
1,       1470,       1470,     1470,     2940, 0x126902c3
0,          2,          2,        1,   158400, 0x2d8fc909
1,       2940,       2940,     1470,     2940, 0x4977b9e6
0,          3,          3,        1,   158400, 0xea93c5ab
1,       4410,       4410,     1470,     2940, 0x5144d68c
0,          4,          4,        1,   158400, 0xa1f5bf60
1,       5880,       5880,     1470,     2940, 0x282ebf71
0,          5,          5,        1,   158400, 0x739ecfa9
1,       7350,       7350,     1470,     2940, 0xc2e7c73c
0,          6,          6,        1,   158400, 0xe9830c7e
1,       8820,       8820,     1470,     2940, 0x717d6fc5
0,          7,          7,        1,   158400, 0xd885665b
1,      10290,      10290,     1470,     2940, 0x78538428
0,          8,          8,        1,   158400, 0x3235f8ad
1,      11760,      11760,     1470,     2940, 0x94ffd1ad
0,          9,          9,        1,   158400, 0xd8550cca
1,      13230,      13230,     1470,     2940, 0xad43de8b
0,         10,         10,        1,   158400, 0x05e9e231
1,      14700,      14700,     1470,     2940, 0x65e4b604
0,         11,         11,        1,   158400, 0xce9dd29b
1,      16170,      16170,     1470,     2940, 0xd6d6c30f
0,         12,         12,        1,   158400, 0x857494a6
1,      17640,      17640,     1470,     2940, 0x7b897e4e
0,         13,         13,        1,   158400, 0x9cad464a
1,      19110,      19110,     1470,     2940, 0xf79546ad
0,         14,         14,        1,   158400, 0x04c3177a
1,      20580,      20580,     1470,     2940, 0x658c904e
0,         15,         15,        1,   158400, 0xa3d2399a
1,      22050,      22050,     1470,     2940, 0xb7b8cd8c
0,         16,         16,        1,   158400, 0x12cdd418
1,      23520,      23520,     1470,     2940, 0x2f2da7c5
0,         17,         17,        1,   158400, 0x5ef67c9e
1,      24990,      24990,     1470,     2940, 0x51938cf8
0,         18,         18,        1,   158400, 0xba7a7f11
1,      26460,      26460,     1470,     2940, 0xdf61c87a
0,         19,         19,        1,   158400, 0x084b60e7
1,      27930,      27930,     1470,     2940, 0xf72a7069
0,         20,         20,        1,   158400, 0xef95a6a5
1,      29400,      29400,     1470,     2940, 0x9af2a425
0,         21,         21,        1,   158400, 0x55f392f1
1,      30870,      30870,     1470,     2940, 0x4c3f5ac7
0,         22,         22,        1,   158400, 0x63fca6bb
1,      32340,      32340,     1470,     2940, 0xfe4cb0b2
0,         23,         23,        1,   158400, 0x0f7e62fe
1,      33810,      33810,     1470,     2940, 0x732a35ed
0,         24,         24,        1,   158400, 0xf35febc1
1,      35280,      35280,     1470,     2940, 0x526b9e0f
0,         25,         25,        1,   158400, 0x6bf6f219
1,      36750,      36750,     1470,     2940, 0x4bd9d4e2
0,         26,         26,        1,   158400, 0xbdf13e77
1,      38220,      38220,     1470,     2940, 0x84340827
0,         27,         27,        1,   158400, 0x88490e47
1,      39690,      39690,     1470,     2940, 0xe54f7911
0,         28,         28,        1,   158400, 0xdb786540
1,      41160,      41160,     1470,     2940, 0x0bbdef52
0,         29,         29,        1,   158400, 0x7335c045
1,      42630,      42630,     1470,     2940, 0xc1aac5e1
0,         30,         30,        1,   158400, 0x6b78015a
1,      44100,      44100,     1470,     2940, 0x515ea512
0,         31,         31,        1,   158400, 0x9e9b6d16
1,      45570,      45570,     1470,     2940, 0x9e7fdac1
0,         32,         32,        1,   158400, 0xe618e024
1,      47040,      47040,     1470,     2940, 0xf1d4c9cc
0,         33,         33,        1,   158400, 0x56cd60f7
1,      48510,      48510,     1470,     2940, 0x1bc9b6ee
0,         34,         34,        1,   158400, 0xf08e22fe
1,      49980,      49980,     1470,     2940, 0xff8ac114
